<svg width="50" height="50" viewBox="0 0 50 50" fill="none" xmlns="http://www.w3.org/2000/svg">
<path fill-rule="evenodd" clip-rule="evenodd" d="M27.0701 12.1618C18.7402 12.1618 12.0583 18.7453 12.0834 26.7938L12.0834 26.7958V26.7978C12.0833 29.5975 12.9016 32.3359 14.4373 34.6764C14.525 34.7962 14.6071 34.92 14.6832 35.0475L14.6893 35.0577L14.6951 35.0679C14.8184 35.2835 14.9645 35.5739 15.0652 35.8945C15.1574 36.188 15.2635 36.6664 15.1248 37.177L15.1241 37.1797L13.833 41.8498L18.2977 40.2385C18.7416 40.0559 19.2173 39.9626 19.6975 39.9641L19.6999 39.9641L19.6951 41.2141L19.6975 39.9641C20.147 39.9647 20.5927 40.0478 21.0123 40.2091L21.0142 40.2098C21.2675 40.3076 22.2769 40.6826 23.275 40.9619C24.2561 41.2366 26.068 41.5696 27.3498 41.5696C35.6381 41.5696 42.0832 34.9148 42.0834 26.8099C42.083 25.8044 41.9766 24.8014 41.7658 23.8183L41.7653 23.8157C40.3596 17.1884 34.3289 12.1618 27.0701 12.1618ZM9.58339 26.7997C9.55488 17.31 17.4163 9.66177 27.0701 9.66177C35.495 9.66177 42.5561 15.4999 44.2105 23.2951C44.458 24.45 44.583 25.6278 44.5834 26.809C44.5834 36.2679 37.0457 44.0696 27.3498 44.0696C25.7722 44.0696 23.7247 43.6839 22.6012 43.3694C21.496 43.0601 20.4051 42.6545 20.1147 42.5423C19.9803 42.4908 19.8376 42.4643 19.6937 42.4641L19.692 42.4641L19.6904 42.4641C19.5349 42.4635 19.381 42.4945 19.2379 42.555L19.2068 42.5682L13.9052 44.4816C13.6851 44.5719 13.4532 44.6303 13.2164 44.655L13.1498 44.662L13.0827 44.6618C12.8181 44.661 12.5563 44.6077 12.3125 44.505C12.0687 44.4023 11.8476 44.2522 11.6622 44.0635C11.4767 43.8748 11.3306 43.6511 11.2322 43.4055C11.1338 43.1599 11.0851 42.8972 11.089 42.6326L11.0895 42.595L11.0923 42.5576C11.1051 42.3865 11.1356 42.2173 11.1832 42.0526L12.6792 36.641C12.652 36.5552 12.5999 36.4414 12.5307 36.3192C12.4931 36.2569 12.4525 36.1965 12.409 36.1381L12.3877 36.1094L12.368 36.0796C10.5518 33.3253 9.58366 30.0988 9.58339 26.7997Z" fill="#FF9078"/>
<path fill-rule="evenodd" clip-rule="evenodd" d="M5.4167 22.4759C5.3882 12.9862 13.2496 5.33804 22.9034 5.33804C31.3283 5.33804 38.3894 11.1762 40.0438 18.9714C40.2913 20.1263 40.4163 21.3041 40.4167 22.4853C40.4167 31.9442 32.879 39.7459 23.1831 39.7459C21.6055 39.7459 19.558 39.3601 18.4345 39.0457C17.3293 38.7364 16.2384 38.3307 15.948 38.2186C15.8136 38.1671 15.6709 38.1406 15.527 38.1404L15.5253 38.1404L15.5237 38.1404C15.3683 38.1398 15.2143 38.1707 15.0712 38.2313L15.0401 38.2445L9.73853 40.1579C9.51843 40.2481 9.28649 40.3065 9.04974 40.3313L8.98308 40.3382L8.91605 40.338C8.65146 40.3372 8.38966 40.2839 8.14582 40.1813C7.90197 40.0786 7.68092 39.9285 7.49548 39.7398C7.31005 39.551 7.1639 39.3274 7.06551 39.0818C6.96712 38.8361 6.91844 38.5734 6.9223 38.3089L6.92285 38.2713L6.92566 38.2338C6.93845 38.0628 6.9689 37.8936 7.01649 37.7289L8.51255 32.3173C8.48528 32.2315 8.43321 32.1177 8.36405 31.9955C8.32643 31.9332 8.28581 31.8728 8.24234 31.8144L8.22097 31.7857L8.20127 31.7558C6.38514 29.0016 5.41698 25.775 5.4167 22.4759Z" fill="#373737"/>
<path d="M31 28.5C31 29.8807 29.8807 31 28.5 31C27.1193 31 26 29.8807 26 28.5C26 27.1193 27.1193 26 28.5 26C29.8807 26 31 27.1193 31 28.5ZM27.25 28.5C27.25 29.1904 27.8096 29.75 28.5 29.75C29.1904 29.75 29.75 29.1904 29.75 28.5C29.75 27.8097 29.1904 27.25 28.5 27.25C27.8096 27.25 27.25 27.8097 27.25 28.5Z" fill="#FF9078"/>
<path d="M25 22.5C25 23.8807 23.8807 25 22.5 25C21.1193 25 20 23.8807 20 22.5C20 21.1193 21.1193 20 22.5 20C23.8807 20 25 21.1193 25 22.5ZM21.25 22.5C21.25 23.1904 21.8096 23.75 22.5 23.75C23.1904 23.75 23.75 23.1904 23.75 22.5C23.75 21.8097 23.1904 21.25 22.5 21.25C21.8096 21.25 21.25 21.8097 21.25 22.5Z" fill="#FF9078"/>
<path d="M19 16.5C19 17.8807 17.8807 19 16.5 19C15.1193 19 14 17.8807 14 16.5C14 15.1193 15.1193 14 16.5 14C17.8807 14 19 15.1193 19 16.5ZM15.25 16.5C15.25 17.1904 15.8096 17.75 16.5 17.75C17.1904 17.75 17.75 17.1904 17.75 16.5C17.75 15.8097 17.1904 15.25 16.5 15.25C15.8096 15.25 15.25 15.8097 15.25 16.5Z" fill="#FF9078"/>
</svg>
